{"asset":{"version":"2.0","generator":"Blockbench 3.6.6 glTF exporter"},"scenes":[{"nodes":[17],"name":"blockbench_export"}],"scene":0,"nodes":[{"translation":[1.5,0,0],"name":"b9c938bc-5503-d9a6-9eaa-7c4314a7a73a","mesh":0},{"translation":[1.5,-4,-2],"name":"f47f47f3-f35e-e607-a059-9b797e4cc49d","mesh":1},{"translation":[-1.5,0,0],"name":"right_leg","children":[0,1]},{"translation":[-1.5,-4,0],"name":"66eea096-eeef-1f2f-57fa-5bc92b64db6f","mesh":2},{"translation":[1.5,-4,-2],"name":"9620a1de-8109-d046-6408-a63dc0605d66","mesh":3},{"translation":[1.5,0,0],"name":"left_leg","children":[3,4]},{"translation":[0,-12,6],"name":"ad8ce228-203f-f69d-15e3-69dd09fbeb2b","mesh":4},{"translation":[0,1,-2],"name":"beack","children":[6]},{"translation":[0,-11,4],"name":"0284e674-0c54-e3a3-1f4c-0a7f08da47ad","mesh":5},{"translation":[0,5,-4],"name":"head","children":[7,8]},{"translation":[3,-11,0.5],"name":"cacaaaf8-af5c-4b17-2be2-b6d60b1e925a","mesh":6},{"translation":[-3,5.5,-0.5],"name":"left_wing","children":[10]},{"translation":[-3,-11,0.5],"name":"0b460a84-8684-a506-7d3e-f72371f23901","mesh":7},{"translation":[3,5.5,-0.5],"name":"right_wing","children":[12]},{"translation":[0,-5,0],"name":"223d4518-bf79-c6c9-2c24-55c0dd57d37b","mesh":8},{"name":"body","children":[11,13,14]},{"name":"body_full","children":[9,15]},{"translation":[0,4,0],"name":"ducky","children":[2,5,16]}],"bufferViews":[{"buffer":0,"byteOffset":0,"byteLength":432,"target":34962,"byteStride":12},{"buffer":0,"byteOffset":432,"byteLength":432,"target":34962,"byteStride":12},{"buffer":0,"byteOffset":864,"byteLength":288,"target":34962,"byteStride":8},{"buffer":0,"byteOffset":1152,"byteLength":12,"target":34963},{"buffer":0,"byteOffset":1164,"byteLength":12,"target":34963},{"buffer":0,"byteOffset":1176,"byteLength":12,"target":34963},{"buffer":0,"byteOffset":1188,"byteLength":12,"target":34963},{"buffer":0,"byteOffset":1200,"byteLength":12,"target":34963},{"buffer":0,"byteOffset":1212,"byteLength":12,"target":34963},{"buffer":0,"byteOffset":1224,"byteLength":432,"target":34962,"byteStride":12},{"buffer":0,"byteOffset":1656,"byteLength":432,"target":34962,"byteStride":12},{"buffer":0,"byteOffset":2088,"byteLength":288,"target":34962,"byteStride":8},{"buffer":0,"byteOffset":2376,"byteLength":12,"target":34963},{"buffer":0,"byteOffset":2388,"byteLength":12,"target":34963},{"buffer":0,"byteOffset":2400,"byteLength":12,"target":34963},{"buffer":0,"byteOffset":2412,"byteLength":12,"target":34963},{"buffer":0,"byteOffset":2424,"byteLength":12,"target":34963},{"buffer":0,"byteOffset":2436,"byteLength":12,"target":34963},{"buffer":0,"byteOffset":2448,"byteLength":432,"target":34962,"byteStride":12},{"buffer":0,"byteOffset":2880,"byteLength":432,"target":34962,"byteStride":12},{"buffer":0,"byteOffset":3312,"byteLength":288,"target":34962,"byteStride":8},{"buffer":0,"byteOffset":3600,"byteLength":12,"target":34963},{"buffer":0,"byteOffset":3612,"byteLength":12,"target":34963},{"buffer":0,"byteOffset":3624,"byteLength":12,"target":34963},{"buffer":0,"byteOffset":3636,"byteLength":12,"target":34963},{"buffer":0,"byteOffset":3648,"byteLength":12,"target":34963},{"buffer":0,"byteOffset":3660,"byteLength":12,"target":34963},{"buffer":0,"byteOffset":3672,"byteLength":432,"target":34962,"byteStride":12},{"buffer":0,"byteOffset":4104,"byteLength":432,"target":34962,"byteStride":12},{"buffer":0,"byteOffset":4536,"byteLength":288,"target":34962,"byteStride":8},{"buffer":0,"byteOffset":4824,"byteLength":12,"target":34963},{"buffer":0,"byteOffset":4836,"byteLength":12,"target":34963},{"buffer":0,"byteOffset":4848,"byteLength":12,"target":34963},{"buffer":0,"byteOffset":4860,"byteLength":12,"target":34963},{"buffer":0,"byteOffset":4872,"byteLength":12,"target":34963},{"buffer":0,"byteOffset":4884,"byteLength":12,"target":34963},{"buffer":0,"byteOffset":4896,"byteLength":432,"target":34962,"byteStride":12},{"buffer":0,"byteOffset":5328,"byteLength":432,"target":34962,"byteStride":12},{"buffer":0,"byteOffset":5760,"byteLength":288,"target":34962,"byteStride":8},{"buffer":0,"byteOffset":6048,"byteLength":12,"target":34963},{"buffer":0,"byteOffset":6060,"byteLength":12,"target":34963},{"buffer":0,"byteOffset":6072,"byteLength":12,"target":34963},{"buffer":0,"byteOffset":6084,"byteLength":12,"target":34963},{"buffer":0,"byteOffset":6096,"byteLength":12,"target":34963},{"buffer":0,"byteOffset":6108,"byteLength":12,"target":34963},{"buffer":0,"byteOffset":6120,"byteLength":432,"target":34962,"byteStride":12},{"buffer":0,"byteOffset":6552,"byteLength":432,"target":34962,"byteStride":12},{"buffer":0,"byteOffset":6984,"byteLength":288,"target":34962,"byteStride":8},{"buffer":0,"byteOffset":7272,"byteLength":12,"target":34963},{"buffer":0,"byteOffset":7284,"byteLength":12,"target":34963},{"buffer":0,"byteOffset":7296,"byteLength":12,"target":34963},{"buffer":0,"byteOffset":7308,"byteLength":12,"target":34963},{"buffer":0,"byteOffset":7320,"byteLength":12,"target":34963},{"buffer":0,"byteOffset":7332,"byteLength":12,"target":34963},{"buffer":0,"byteOffset":7344,"byteLength":432,"target":34962,"byteStride":12},{"buffer":0,"byteOffset":7776,"byteLength":432,"target":34962,"byteStride":12},{"buffer":0,"byteOffset":8208,"byteLength":288,"target":34962,"byteStride":8},{"buffer":0,"byteOffset":8496,"byteLength":12,"target":34963},{"buffer":0,"byteOffset":8508,"byteLength":12,"target":34963},{"buffer":0,"byteOffset":8520,"byteLength":12,"target":34963},{"buffer":0,"byteOffset":8532,"byteLength":12,"target":34963},{"buffer":0,"byteOffset":8544,"byteLength":12,"target":34963},{"buffer":0,"byteOffset":8556,"byteLength":12,"target":34963},{"buffer":0,"byteOffset":8568,"byteLength":432,"target":34962,"byteStride":12},{"buffer":0,"byteOffset":9000,"byteLength":432,"target":34962,"byteStride":12},{"buffer":0,"byteOffset":9432,"byteLength":288,"target":34962,"byteStride":8},{"buffer":0,"byteOffset":9720,"byteLength":12,"target":34963},{"buffer":0,"byteOffset":9732,"byteLength":12,"target":34963},{"buffer":0,"byteOffset":9744,"byteLength":12,"target":34963},{"buffer":0,"byteOffset":9756,"byteLength":12,"target":34963},{"buffer":0,"byteOffset":9768,"byteLength":12,"target":34963},{"buffer":0,"byteOffset":9780,"byteLength":12,"target":34963},{"buffer":0,"byteOffset":9792,"byteLength":432,"target":34962,"byteStride":12},{"buffer":0,"byteOffset":10224,"byteLength":432,"target":34962,"byteStride":12},{"buffer":0,"byteOffset":10656,"byteLength":288,"target":34962,"byteStride":8},{"buffer":0,"byteOffset":10944,"byteLength":12,"target":34963},{"buffer":0,"byteOffset":10956,"byteLength":12,"target":34963},{"buffer":0,"byteOffset":10968,"byteLength":12,"target":34963},{"buffer":0,"byteOffset":10980,"byteLength":12,"target":34963},{"buffer":0,"byteOffset":10992,"byteLength":12,"target":34963},{"buffer":0,"byteOffset":11004,"byteLength":12,"target":34963},{"buffer":0,"byteOffset":11016,"byteLength":4},{"buffer":0,"byteOffset":11020,"byteLength":12},{"buffer":0,"byteOffset":11032,"byteLength":36},{"buffer":0,"byteOffset":11068,"byteLength":108},{"buffer":0,"byteOffset":11176,"byteLength":32},{"buffer":0,"byteOffset":11208,"byteLength":128},{"buffer":0,"byteOffset":11336,"byteLength":52},{"buffer":0,"byteOffset":11388,"byteLength":156},{"buffer":0,"byteOffset":11544,"byteLength":32},{"buffer":0,"byteOffset":11576,"byteLength":128},{"buffer":0,"byteOffset":11704,"byteLength":52},{"buffer":0,"byteOffset":11756,"byteLength":156},{"buffer":0,"byteOffset":11912,"byteLength":32},{"buffer":0,"byteOffset":11944,"byteLength":128}],"buffers":[{"byteLength":12072,"uri":"data:application/octet-stream;base64,"}],"accessors":[{"bufferView":0,"componentType":5126,"count":36,"max":[0,0,1],"min":[-3,-4,-1],"type":"VEC3"},{"bufferView":1,"componentType":5126,"count":36,"max":[1,1,1],"min":[-1,-1,-1],"type":"VEC3"},{"bufferView":2,"componentType":5126,"count":36,"max":[0.562255859375,0.99951171875],"min":[0.406494140625,0.81298828125],"type":"VEC2"},{"bufferView":3,"componentType":5123,"count":6,"max":[5],"min":[0],"type":"SCALAR"},{"bufferView":4,"componentType":5123,"count":6,"max":[11],"min":[6],"type":"SCALAR"},{"bufferView":5,"componentType":5123,"count":6,"max":[17],"min":[12],"type":"SCALAR"},{"bufferView":6,"componentType":5123,"count":6,"max":[23],"min":[18],"type":"SCALAR"},{"bufferView":7,"componentType":5123,"count":6,"max":[29],"min":[24],"type":"SCALAR"},{"bufferView":8,"componentType":5123,"count":6,"max":[35],"min":[30],"type":"SCALAR"},{"bufferView":9,"componentType":5126,"count":36,"max":[0,1,1],"min":[-3,0,0],"type":"VEC3"},{"bufferView":10,"componentType":5126,"count":36,"max":[1,1,1],"min":[-1,-1,-1],"type":"VEC3"},{"bufferView":11,"componentType":5126,"count":36,"max":[0.531005859375,0.87451171875],"min":[0.406494140625,0.81298828125],"type":"VEC2"},{"bufferView":12,"componentType":5123,"count":6,"max":[5],"min":[0],"type":"SCALAR"},{"bufferView":13,"componentType":5123,"count":6,"max":[11],"min":[6],"type":"SCALAR"},{"bufferView":14,"componentType":5123,"count":6,"max":[17],"min":[12],"type":"SCALAR"},{"bufferView":15,"componentType":5123,"count":6,"max":[23],"min":[18],"type":"SCALAR"},{"bufferView":16,"componentType":5123,"count":6,"max":[29],"min":[24],"type":"SCALAR"},{"bufferView":17,"componentType":5123,"count":6,"max":[35],"min":[30],"type":"SCALAR"},{"bufferView":18,"componentType":5126,"count":36,"max":[3,4,1],"min":[0,0,-1],"type":"VEC3"},{"bufferView":19,"componentType":5126,"count":36,"max":[1,1,1],"min":[-1,-1,-1],"type":"VEC3"},{"bufferView":20,"componentType":5126,"count":36,"max":[0.562255859375,0.99951171875],"min":[0.406494140625,0.81298828125],"type":"VEC2"},{"bufferView":21,"componentType":5123,"count":6,"max":[5],"min":[0],"type":"SCALAR"},{"bufferView":22,"componentType":5123,"count":6,"max":[11],"min":[6],"type":"SCALAR"},{"bufferView":23,"componentType":5123,"count":6,"max":[17],"min":[12],"type":"SCALAR"},{"bufferView":24,"componentType":5123,"count":6,"max":[23],"min":[18],"type":"SCALAR"},{"bufferView":25,"componentType":5123,"count":6,"max":[29],"min":[24],"type":"SCALAR"},{"bufferView":26,"componentType":5123,"count":6,"max":[35],"min":[30],"type":"SCALAR"},{"bufferView":27,"componentType":5126,"count":36,"max":[0,1,1],"min":[-3,0,0],"type":"VEC3"},{"bufferView":28,"componentType":5126,"count":36,"max":[1,1,1],"min":[-1,-1,-1],"type":"VEC3"},{"bufferView":29,"componentType":5126,"count":36,"max":[0.531005859375,0.87451171875],"min":[0.406494140625,0.81298828125],"type":"VEC2"},{"bufferView":30,"componentType":5123,"count":6,"max":[5],"min":[0],"type":"SCALAR"},{"bufferView":31,"componentType":5123,"count":6,"max":[11],"min":[6],"type":"SCALAR"},{"bufferView":32,"componentType":5123,"count":6,"max":[17],"min":[12],"type":"SCALAR"},{"bufferView":33,"componentType":5123,"count":6,"max":[23],"min":[18],"type":"SCALAR"},{"bufferView":34,"componentType":5123,"count":6,"max":[29],"min":[24],"type":"SCALAR"},{"bufferView":35,"componentType":5123,"count":6,"max":[35],"min":[30],"type":"SCALAR"},{"bufferView":36,"componentType":5126,"count":36,"max":[2,13,-6],"min":[-2,11,-8],"type":"VEC3"},{"bufferView":37,"componentType":5126,"count":36,"max":[1,1,1],"min":[-1,-1,-1],"type":"VEC3"},{"bufferView":38,"componentType":5126,"count":36,"max":[0.406005859375,0.99951171875],"min":[0.218994140625,0.87548828125],"type":"VEC2"},{"bufferView":39,"componentType":5123,"count":6,"max":[5],"min":[0],"type":"SCALAR"},{"bufferView":40,"componentType":5123,"count":6,"max":[11],"min":[6],"type":"SCALAR"},{"bufferView":41,"componentType":5123,"count":6,"max":[17],"min":[12],"type":"SCALAR"},{"bufferView":42,"componentType":5123,"count":6,"max":[23],"min":[18],"type":"SCALAR"},{"bufferView":43,"componentType":5123,"count":6,"max":[29],"min":[24],"type":"SCALAR"},{"bufferView":44,"componentType":5123,"count":6,"max":[35],"min":[30],"type":"SCALAR"},{"bufferView":45,"componentType":5126,"count":36,"max":[2,15,-2],"min":[-2,9,-6],"type":"VEC3"},{"bufferView":46,"componentType":5126,"count":36,"max":[1,1,1],"min":[-1,-1,-1],"type":"VEC3"},{"bufferView":47,"componentType":5126,"count":36,"max":[0.249755859375,0.99951171875],"min":[0.000244140625,0.68798828125],"type":"VEC2"},{"bufferView":48,"componentType":5123,"count":6,"max":[5],"min":[0],"type":"SCALAR"},{"bufferView":49,"componentType":5123,"count":6,"max":[11],"min":[6],"type":"SCALAR"},{"bufferView":50,"componentType":5123,"count":6,"max":[17],"min":[12],"type":"SCALAR"},{"bufferView":51,"componentType":5123,"count":6,"max":[23],"min":[18],"type":"SCALAR"},{"bufferView":52,"componentType":5123,"count":6,"max":[29],"min":[24],"type":"SCALAR"},{"bufferView":53,"componentType":5123,"count":6,"max":[35],"min":[30],"type":"SCALAR"},{"bufferView":54,"componentType":5126,"count":36,"max":[-3,11,3],"min":[-4,7,-3],"type":"VEC3"},{"bufferView":55,"componentType":5126,"count":36,"max":[1,1,1],"min":[-1,-1,-1],"type":"VEC3"},{"bufferView":56,"componentType":5126,"count":36,"max":[0.593505859375,0.59326171875],"min":[0.375244140625,0.28173828125],"type":"VEC2"},{"bufferView":57,"componentType":5123,"count":6,"max":[5],"min":[0],"type":"SCALAR"},{"bufferView":58,"componentType":5123,"count":6,"max":[11],"min":[6],"type":"SCALAR"},{"bufferView":59,"componentType":5123,"count":6,"max":[17],"min":[12],"type":"SCALAR"},{"bufferView":60,"componentType":5123,"count":6,"max":[23],"min":[18],"type":"SCALAR"},{"bufferView":61,"componentType":5123,"count":6,"max":[29],"min":[24],"type":"SCALAR"},{"bufferView":62,"componentType":5123,"count":6,"max":[35],"min":[30],"type":"SCALAR"},{"bufferView":63,"componentType":5126,"count":36,"max":[4,11,3],"min":[3,7,-3],"type":"VEC3"},{"bufferView":64,"componentType":5126,"count":36,"max":[1,1,1],"min":[-1,-1,-1],"type":"VEC3"},{"bufferView":65,"componentType":5126,"count":36,"max":[0.593505859375,0.59326171875],"min":[0.375244140625,0.28173828125],"type":"VEC2"},{"bufferView":66,"componentType":5123,"count":6,"max":[5],"min":[0],"type":"SCALAR"},{"bufferView":67,"componentType":5123,"count":6,"max":[11],"min":[6],"type":"SCALAR"},{"bufferView":68,"componentType":5123,"count":6,"max":[17],"min":[12],"type":"SCALAR"},{"bufferView":69,"componentType":5123,"count":6,"max":[23],"min":[18],"type":"SCALAR"},{"bufferView":70,"componentType":5123,"count":6,"max":[29],"min":[24],"type":"SCALAR"},{"bufferView":71,"componentType":5123,"count":6,"max":[35],"min":[30],"type":"SCALAR"},{"bufferView":72,"componentType":5126,"count":36,"max":[3,11,4],"min":[-3,5,-4],"type":"VEC3"},{"bufferView":73,"componentType":5126,"count":36,"max":[1,1,1],"min":[-1,-1,-1],"type":"VEC3"},{"bufferView":74,"componentType":5126,"count":36,"max":[0.437255859375,0.43701171875],"min":[0.000244140625,0.00048828125],"type":"VEC2"},{"bufferView":75,"componentType":5123,"count":6,"max":[5],"min":[0],"type":"SCALAR"},{"bufferView":76,"componentType":5123,"count":6,"max":[11],"min":[6],"type":"SCALAR"},{"bufferView":77,"componentType":5123,"count":6,"max":[17],"min":[12],"type":"SCALAR"},{"bufferView":78,"componentType":5123,"count":6,"max":[23],"min":[18],"type":"SCALAR"},{"bufferView":79,"componentType":5123,"count":6,"max":[29],"min":[24],"type":"SCALAR"},{"bufferView":80,"componentType":5123,"count":6,"max":[35],"min":[30],"type":"SCALAR"},{"bufferView":81,"componentType":5126,"count":1,"max":[0],"min":[0],"type":"SCALAR"},{"bufferView":82,"componentType":5126,"count":1,"max":[0,5,-4],"min":[0,5,-4],"type":"VEC3"},{"bufferView":83,"componentType":5126,"count":9,"max":[2.200000047683716],"min":[0],"type":"SCALAR"},{"bufferView":84,"componentType":5126,"count":9,"max":[0,4.5,0],"min":[0,3.5,0],"type":"VEC3"},{"bufferView":85,"componentType":5126,"count":8,"max":[2.200000047683716],"min":[0],"type":"SCALAR"},{"bufferView":86,"componentType":5126,"count":8,"max":[0.258819043636322,0,0,1],"min":[-0.4226182699203491,0,0,0.9063078165054321],"type":"VEC4"},{"bufferView":87,"componentType":5126,"count":13,"max":[2.200000047683716],"min":[0],"type":"SCALAR"},{"bufferView":88,"componentType":5126,"count":13,"max":[-1.5,0.5,0],"min":[-1.5,0,0],"type":"VEC3"},{"bufferView":89,"componentType":5126,"count":8,"max":[2.200000047683716],"min":[0],"type":"SCALAR"},{"bufferView":90,"componentType":5126,"count":8,"max":[0.4226182699203491,0,0,1],"min":[-0.258819043636322,0,0,0.9063078165054321],"type":"VEC4"},{"bufferView":91,"componentType":5126,"count":13,"max":[2.200000047683716],"min":[0],"type":"SCALAR"},{"bufferView":92,"componentType":5126,"count":13,"max":[1.5,0.5,0],"min":[1.5,0,0],"type":"VEC3"},{"bufferView":93,"componentType":5126,"count":8,"max":[2.200000047683716],"min":[0],"type":"SCALAR"},{"bufferView":94,"componentType":5126,"count":8,"max":[0,0,0.10070901364088058,1],"min":[0,0,-0.09827767312526703,0.9949159026145935],"type":"VEC4"}],"materials":[{"pbrMetallicRoughness":{"metallicFactor":0,"roughnessFactor":1,"baseColorTexture":{"index":0}},"alphaMode":"MASK","alphaCutoff":0.05,"doubleSided":true,"name":"duck.png"}],"textures":[{"sampler":0,"source":0,"name":"duck.png"}],"samplers":[{"magFilter":9728,"minFilter":9728,"wrapS":33071,"wrapT":33071}],"images":[{"mimeType":"image/png","uri":"data:image/png;base64,"}],"meshes":[{"primitives":[{"mode":4,"attributes":{"POSITION":0,"NORMAL":1,"TEXCOORD_0":2},"indices":3,"material":0},{"mode":4,"attributes":{"POSITION":0,"NORMAL":1,"TEXCOORD_0":2},"indices":4,"material":0},{"mode":4,"attributes":{"POSITION":0,"NORMAL":1,"TEXCOORD_0":2},"indices":5,"material":0},{"mode":4,"attributes":{"POSITION":0,"NORMAL":1,"TEXCOORD_0":2},"indices":6,"material":0},{"mode":4,"attributes":{"POSITION":0,"NORMAL":1,"TEXCOORD_0":2},"indices":7,"material":0},{"mode":4,"attributes":{"POSITION":0,"NORMAL":1,"TEXCOORD_0":2},"indices":8,"material":0}]},{"primitives":[{"mode":4,"attributes":{"POSITION":9,"NORMAL":10,"TEXCOORD_0":11},"indices":12,"material":0},{"mode":4,"attributes":{"POSITION":9,"NORMAL":10,"TEXCOORD_0":11},"indices":13,"material":0},{"mode":4,"attributes":{"POSITION":9,"NORMAL":10,"TEXCOORD_0":11},"indices":14,"material":0},{"mode":4,"attributes":{"POSITION":9,"NORMAL":10,"TEXCOORD_0":11},"indices":15,"material":0},{"mode":4,"attributes":{"POSITION":9,"NORMAL":10,"TEXCOORD_0":11},"indices":16,"material":0},{"mode":4,"attributes":{"POSITION":9,"NORMAL":10,"TEXCOORD_0":11},"indices":17,"material":0}]},{"primitives":[{"mode":4,"attributes":{"POSITION":18,"NORMAL":19,"TEXCOORD_0":20},"indices":21,"material":0},{"mode":4,"attributes":{"POSITION":18,"NORMAL":19,"TEXCOORD_0":20},"indices":22,"material":0},{"mode":4,"attributes":{"POSITION":18,"NORMAL":19,"TEXCOORD_0":20},"indices":23,"material":0},{"mode":4,"attributes":{"POSITION":18,"NORMAL":19,"TEXCOORD_0":20},"indices":24,"material":0},{"mode":4,"attributes":{"POSITION":18,"NORMAL":19,"TEXCOORD_0":20},"indices":25,"material":0},{"mode":4,"attributes":{"POSITION":18,"NORMAL":19,"TEXCOORD_0":20},"indices":26,"material":0}]},{"primitives":[{"mode":4,"attributes":{"POSITION":27,"NORMAL":28,"TEXCOORD_0":29},"indices":30,"material":0},{"mode":4,"attributes":{"POSITION":27,"NORMAL":28,"TEXCOORD_0":29},"indices":31,"material":0},{"mode":4,"attributes":{"POSITION":27,"NORMAL":28,"TEXCOORD_0":29},"indices":32,"material":0},{"mode":4,"attributes":{"POSITION":27,"NORMAL":28,"TEXCOORD_0":29},"indices":33,"material":0},{"mode":4,"attributes":{"POSITION":27,"NORMAL":28,"TEXCOORD_0":29},"indices":34,"material":0},{"mode":4,"attributes":{"POSITION":27,"NORMAL":28,"TEXCOORD_0":29},"indices":35,"material":0}]},{"primitives":[{"mode":4,"attributes":{"POSITION":36,"NORMAL":37,"TEXCOORD_0":38},"indices":39,"material":0},{"mode":4,"attributes":{"POSITION":36,"NORMAL":37,"TEXCOORD_0":38},"indices":40,"material":0},{"mode":4,"attributes":{"POSITION":36,"NORMAL":37,"TEXCOORD_0":38},"indices":41,"material":0},{"mode":4,"attributes":{"POSITION":36,"NORMAL":37,"TEXCOORD_0":38},"indices":42,"material":0},{"mode":4,"attributes":{"POSITION":36,"NORMAL":37,"TEXCOORD_0":38},"indices":43,"material":0},{"mode":4,"attributes":{"POSITION":36,"NORMAL":37,"TEXCOORD_0":38},"indices":44,"material":0}]},{"primitives":[{"mode":4,"attributes":{"POSITION":45,"NORMAL":46,"TEXCOORD_0":47},"indices":48,"material":0},{"mode":4,"attributes":{"POSITION":45,"NORMAL":46,"TEXCOORD_0":47},"indices":49,"material":0},{"mode":4,"attributes":{"POSITION":45,"NORMAL":46,"TEXCOORD_0":47},"indices":50,"material":0},{"mode":4,"attributes":{"POSITION":45,"NORMAL":46,"TEXCOORD_0":47},"indices":51,"material":0},{"mode":4,"attributes":{"POSITION":45,"NORMAL":46,"TEXCOORD_0":47},"indices":52,"material":0},{"mode":4,"attributes":{"POSITION":45,"NORMAL":46,"TEXCOORD_0":47},"indices":53,"material":0}]},{"primitives":[{"mode":4,"attributes":{"POSITION":54,"NORMAL":55,"TEXCOORD_0":56},"indices":57,"material":0},{"mode":4,"attributes":{"POSITION":54,"NORMAL":55,"TEXCOORD_0":56},"indices":58,"material":0},{"mode":4,"attributes":{"POSITION":54,"NORMAL":55,"TEXCOORD_0":56},"indices":59,"material":0},{"mode":4,"attributes":{"POSITION":54,"NORMAL":55,"TEXCOORD_0":56},"indices":60,"material":0},{"mode":4,"attributes":{"POSITION":54,"NORMAL":55,"TEXCOORD_0":56},"indices":61,"material":0},{"mode":4,"attributes":{"POSITION":54,"NORMAL":55,"TEXCOORD_0":56},"indices":62,"material":0}]},{"primitives":[{"mode":4,"attributes":{"POSITION":63,"NORMAL":64,"TEXCOORD_0":65},"indices":66,"material":0},{"mode":4,"attributes":{"POSITION":63,"NORMAL":64,"TEXCOORD_0":65},"indices":67,"material":0},{"mode":4,"attributes":{"POSITION":63,"NORMAL":64,"TEXCOORD_0":65},"indices":68,"material":0},{"mode":4,"attributes":{"POSITION":63,"NORMAL":64,"TEXCOORD_0":65},"indices":69,"material":0},{"mode":4,"attributes":{"POSITION":63,"NORMAL":64,"TEXCOORD_0":65},"indices":70,"material":0},{"mode":4,"attributes":{"POSITION":63,"NORMAL":64,"TEXCOORD_0":65},"indices":71,"material":0}]},{"primitives":[{"mode":4,"attributes":{"POSITION":72,"NORMAL":73,"TEXCOORD_0":74},"indices":75,"material":0},{"mode":4,"attributes":{"POSITION":72,"NORMAL":73,"TEXCOORD_0":74},"indices":76,"material":0},{"mode":4,"attributes":{"POSITION":72,"NORMAL":73,"TEXCOORD_0":74},"indices":77,"material":0},{"mode":4,"attributes":{"POSITION":72,"NORMAL":73,"TEXCOORD_0":74},"indices":78,"material":0},{"mode":4,"attributes":{"POSITION":72,"NORMAL":73,"TEXCOORD_0":74},"indices":79,"material":0},{"mode":4,"attributes":{"POSITION":72,"NORMAL":73,"TEXCOORD_0":74},"indices":80,"material":0}]}],"animations":[{"name":"walk","samplers":[{"input":81,"output":82,"interpolation":"LINEAR"},{"input":83,"output":84,"interpolation":"LINEAR"},{"input":85,"output":86,"interpolation":"LINEAR"},{"input":87,"output":88,"interpolation":"LINEAR"},{"input":89,"output":90,"interpolation":"LINEAR"},{"input":91,"output":92,"interpolation":"LINEAR"},{"input":93,"output":94,"interpolation":"LINEAR"}],"channels":[{"sampler":0,"target":{"node":9,"path":"translation"}},{"sampler":1,"target":{"node":17,"path":"translation"}},{"sampler":2,"target":{"node":2,"path":"rotation"}},{"sampler":3,"target":{"node":2,"path":"translation"}},{"sampler":4,"target":{"node":5,"path":"rotation"}},{"sampler":5,"target":{"node":5,"path":"translation"}},{"sampler":6,"target":{"node":16,"path":"rotation"}}]}]}